<?xml version="1.0" encoding="iso-8859-1"?>
<!-- Generator: Adobe Illustrator 16.0.0, SVG Export Plug-In . SVG Version: 6.00 Build 0)  -->
<!DOCTYPE svg PUBLIC "-//W3C//DTD SVG 1.1//EN" "http://www.w3.org/Graphics/SVG/1.1/DTD/svg11.dtd">
<svg version="1.1" id="Capa_1" xmlns="http://www.w3.org/2000/svg" xmlns:xlink="http://www.w3.org/1999/xlink" x="0px" y="0px"
	 width="946.812px" height="946.812px" viewBox="0 0 946.812 946.812" style="enable-background:new 0 0 946.812 946.812;"
	 xml:space="preserve">
<g>
	<g>
		<path d="M106.812,428.258c0-38.6,31.4-70,70-70h677.8l-80.2-253.9c-7.5-23.6-32.8-36.8-56.5-29.3l-686.5,217
			c-23.7,7.5-36.8,32.8-29.3,56.5l104.8,331.4v-251.7H106.812z"/>
		<path d="M136.812,833.858c0,22.1,17.9,40,40,40h730c22.1,0,40-17.9,40-40v-54h-810V833.858L136.812,833.858z"/>
		<path d="M946.812,428.258c0-22.1-17.9-40-40-40h-42.7h-687.3c-22.1,0-40,17.9-40,40v276.5h199.7h610.3V428.258L946.812,428.258z"
			/>
	</g>
</g>
<g>
</g>
<g>
</g>
<g>
</g>
<g>
</g>
<g>
</g>
<g>
</g>
<g>
</g>
<g>
</g>
<g>
</g>
<g>
</g>
<g>
</g>
<g>
</g>
<g>
</g>
<g>
</g>
<g>
</g>
</svg>
