<?xml version="1.0" encoding="iso-8859-1"?>
<!-- Generator: Adobe Illustrator 16.0.0, SVG Export Plug-In . SVG Version: 6.00 Build 0)  -->
<!DOCTYPE svg PUBLIC "-//W3C//DTD SVG 1.1//EN" "http://www.w3.org/Graphics/SVG/1.1/DTD/svg11.dtd">
<svg version="1.1" id="Capa_1" xmlns="http://www.w3.org/2000/svg" xmlns:xlink="http://www.w3.org/1999/xlink" x="0px" y="0px"
	 width="24px" height="24px" viewBox="0 0 390 390" style="enable-background:new 0 0 390 390;" xml:space="preserve">
<g>
	<g>
		<path d="M350.074,45.264H39.926C23.73,45.264,0,59.19,0,85.188v219.625c0,22.019,17.91,39.924,39.926,39.924h310.148
			c22.016,0,39.926-17.905,39.926-39.924V85.188C390,70.565,380.105,45.264,350.074,45.264z M306.999,89.625L195,180.935
			L83.001,89.625H306.999z M44.361,300.375V120.911l135.262,110.28c4.476,3.647,9.926,5.473,15.376,5.473s10.901-1.822,15.377-5.473
			l135.261-110.28v179.464H44.361L44.361,300.375z"/>
	</g>
</g>
<g>
</g>
<g>
</g>
<g>
</g>
<g>
</g>
<g>
</g>
<g>
</g>
<g>
</g>
<g>
</g>
<g>
</g>
<g>
</g>
<g>
</g>
<g>
</g>
<g>
</g>
<g>
</g>
<g>
</g>
</svg>
