<?xml version="1.0" encoding="iso-8859-1"?>
<!-- Generator: Adobe Illustrator 16.0.0, SVG Export Plug-In . SVG Version: 6.00 Build 0)  -->
<!DOCTYPE svg PUBLIC "-//W3C//DTD SVG 1.1//EN" "http://www.w3.org/Graphics/SVG/1.1/DTD/svg11.dtd">
<svg version="1.1" id="Capa_1" xmlns="http://www.w3.org/2000/svg" xmlns:xlink="http://www.w3.org/1999/xlink" x="0px" y="0px"
	 width="24px" height="24px" viewBox="0 0 24 24" style="enable-background:new 0 0 24 24;" xml:space="preserve">
<g>
	<path d="M16.4,16l3.397,3.6l-0.6,0.7l-4.101-3.7L15,16l0.3-5.4h0.8L16.4,16z M24,16c0,4.4-3.6,8-8,8c-4.4,0-8-3.6-8-8
		c0-4.4,3.6-8,8-8C20.4,8,24,11.6,24,16z M22.7,16c0-3.7-3-6.7-6.7-6.7s-6.7,3-6.7,6.7s3,6.7,6.7,6.7S22.7,19.7,22.7,16z M24,4v7.9
		c-0.5-1-1.2-1.9-2-2.6V5.2l-1-0.508V8.5c-0.6-0.4-1.3-0.7-2-0.9V3.675l-2-1.016V7.1C16.7,7,16.3,7,16,7s-0.7,0-1,0.1V2.438l-2,0.75
		V7.5c-0.7,0.3-1.4,0.6-2,1V3.938l-2,0.75V10.3C7.8,11.9,7,13.9,7,16V4.787L5,4.032V20.3l2,1V16c0,1.854,0.624,3.938,1.595,5.503
		L8.8,21.4c0.4,0.5,0.9,1,1.4,1.5L8,24l-8-4V0l8,3l8-3L24,4z M3,3.277L2,2.9v15.9l1,0.5V3.277z"/>
</g>
<g>
</g>
<g>
</g>
<g>
</g>
<g>
</g>
<g>
</g>
<g>
</g>
<g>
</g>
<g>
</g>
<g>
</g>
<g>
</g>
<g>
</g>
<g>
</g>
<g>
</g>
<g>
</g>
<g>
</g>
</svg>
